<svg width="122" height="41" fill="none" xmlns="http://www.w3.org/2000/svg"><path fill-rule="evenodd" clip-rule="evenodd" d="M68.722 11.301L74.82 27.65H70.3l-1.052-2.839h-5.835L62.31 27.65h-4.468l6.202-16.35h4.678zm-.578 10.303l-1.734-5.151-1.735 5.15h3.47zm47.886-3.89l-1.051-.315c-.736-.263-1.892-.631-1.892-1.577s1.051-1.367 1.787-1.367c.999 0 1.997.42 2.786 1.104l1.682-3.311a11.508 11.508 0 0 0-5.046-1.367c-2.891-.158-5.415 2.05-5.572 4.94v.527c0 3.153 1.734 3.89 4.363 4.625.893.263 2.523.684 2.523 1.84 0 1.156-1.052 1.63-2.05 1.63a5.65 5.65 0 0 1-3.68-1.735l-1.787 3.416c1.63 1.21 3.627 1.84 5.677 1.893 1.682.052 3.259-.526 4.573-1.525a5.621 5.621 0 0 0 1.63-4.363c.052-2.628-1.683-3.784-3.943-4.415zm-57.715 5.414c0 3.417-2.891 4.573-5.835 4.573h-6.413v-16.4h5.993c2.89 0 4.783 1.157 4.783 4.258.158 1.367-.578 2.68-1.787 3.364 2.365.316 3.259 1.892 3.259 4.205zm-8.095-5.414h.473c1.104 0 2.26-.21 2.26-1.577 0-1.366-1.314-1.577-2.47-1.577h-.316v3.154h.053zm3.89 4.941c0-1.997-2.05-1.787-3.47-1.787h-.42v3.522h.526c1.314 0 3.416.105 3.364-1.735zm42.472-9.146a8.792 8.792 0 0 0-2.366 5.992c-.052 2.366.894 4.626 2.576 6.203 1.63 1.524 3.784 2.418 6.045 2.418a10.973 10.973 0 0 0 3.679-.789v-5.098a4.636 4.636 0 0 1-3.627 1.734c-2.313.105-4.257-1.734-4.363-4.047v-.42c-.157-2.366 1.682-4.416 3.995-4.521h.263c1.472 0 2.839.63 3.68 1.787v-5.151c-1.209-.526-2.524-.789-3.838-.841a9.071 9.071 0 0 0-6.044 2.733zm-8.043 14.14h4.205V11.3H88.54v16.35zm-5.624-9.987l-1.052-.316c-.735-.263-1.892-.63-1.892-1.577 0-.946 1.051-1.366 1.787-1.366 1.052 0 1.998.42 2.786 1.104l1.682-3.312c-1.577-.894-3.311-1.367-5.098-1.367-2.891-.157-5.415 2.05-5.572 4.941v.526c0 3.154 1.734 3.89 4.363 4.626.893.262 2.523.683 2.523 1.84 0 1.156-1.051 1.629-2.05 1.629-1.42-.105-2.734-.684-3.732-1.682l-1.787 3.416c1.629 1.21 3.626 1.84 5.676 1.893a7.064 7.064 0 0 0 4.573-1.525c1.157-1.104 1.788-2.733 1.683-4.363.105-2.628-1.63-3.784-3.89-4.467z" fill="#676767"/><path fill-rule="evenodd" clip-rule="evenodd" d="M16.894 20.448c-1.156 6.57-8.147 9.303-10.618 6.36-.42-.526-.473-1.735.894-.894 1.84 1.157 3.89-2.523 4.31-6.518.526-4.468.105-6.833-1.104-5.782-1.051.894-3.732 3.89-4.73 9.672l-.158.473c-.473 4.52-.21 9.041.63 13.456.21.894-2.365 1.788-3.942.526-.578-.42-.84-7.884-.84-13.614 0-3.995.84-14.77 1.524-15.033 2.89-1.262 5.887.157 4.573 4.678-.105.263-.158.578-.263.84.525-.788 1.156-1.524 1.84-2.26 1.05-1.208 2.628-1.84 4.205-1.629 3.521.42 4.625 4.258 3.68 9.725zm26.23-10.881c1.734-.631 1.84-2.313 0-4.889-.21-.315-1.682.789-4.52 1.472l.157-.526c1.577-4.783-.105-6.78-4.994-4.888-.42.158-.683 2.838-.893 5.992-1.367 0-2.523-.105-2.523-.052-.42.683-.684 1.419.525 2.313a6.05 6.05 0 0 0 1.893.788 146.19 146.19 0 0 0-.105 4.573c0 2.365-.053 4.678.105 6.676v.052c-1.84 3.26-7.044 5.152-8.62 2.313.052 0 .104 0 .104-.052 4.941-2.156 8.042-7.57 6.15-10.671-2.68-4.258-11.143-.473-12.195 5.52-.946 5.518 1.525 9.303 5.625 9.724 2.996.315 7.411-2.05 9.304-4.784.473 2.681 1.471 4.52 3.68 4.784 2.417.315 3.784-.316 5.939-2.523 1.997-2.05.736-3.154-.631-1.84-1.524 1.524-3.785 1.84-4.258.157-.788-2.47-.84-8.725 0-13.508a17.997 17.997 0 0 0 5.257-.631zm-19.87 10.355c-1.103-2.996-.473-4.363-.473-4.363.474-1.524 1.315-1.42 1.315-1.42.735.053.735 2.314.735 2.314 1.314-1.157 2.05-.736 2.05-.736.631 1.314-1.156 2.943-1.156 2.943l-.158.158-.105.158v-.053a6.974 6.974 0 0 1-2.207.999z" fill="#5DBD36"/></svg>