<svg width="660" height="158" viewBox="0 0 660 158" fill="none" xmlns="http://www.w3.org/2000/svg"><path d="M23.94 46.983v80.144c0 15.324-1.526 17.86-9.738 18.735v5.452H51.56v-5.452c-8.235-.875-9.738-3.545-9.738-18.735V46.983h.875c9.244 0 14.943 6.843 17.725 21.023h5.318V41.037H0v27.104h5.318c2.782-14.427 8.615-21.136 17.86-21.136h.762v-.022zm79.763 99.125c-7.337-.628-8.616-3.298-8.616-17.096v-35.45c4.69-3.927 10.254-6.462 14.943-6.462 7.337 0 10.007 3.926 10.007 14.314v27.732c0 13.799-1.257 16.469-8.616 17.097v5.183h34.194v-5.183c-7.337-.628-8.616-3.298-8.616-17.097V96.748c0-13.418-6.955-21.517-18.735-21.517-8.997 0-15.952 3.545-23.177 10.119V35.966h-4.308l-21.404 8.1v4.061l8.615 3.029v77.99c0 13.933-1.256 16.469-8.615 17.097v5.183h34.305l.023-5.318zm79.762-5.317c-11.891 0-19.362-12.654-19.632-33.543h38.995c-.628-20.126-10.5-32.152-25.824-32.152-17.209 0-29.505 16.715-29.505 40.633 0 22.033 12.273 36.976 30.38 36.976 13.035 0 22.279-7.472 26.341-21.517l-5.699-2.019c-3.164 7.583-8.1 11.622-15.056 11.622zm-8.122-58.874c6.462 0 10.007 5.946 10.635 18.6h-21.786c1.032-11.622 4.959-18.6 11.151-18.6zm261.703 64.191c-7.337-.628-8.616-3.298-8.616-17.096V35.966h-4.308l-21.27 8.1v4.061l8.616 3.029v78.506c0 13.283-1.638 16.716-8.347 16.716-6.574 0-8.234-3.545-8.234-16.716V75.208h-4.308l-21.404 8.1v3.926l8.615 3.03v38.86c0 13.933-1.256 16.468-8.615 17.097v5.182h67.871v-5.295zm27.979 6.709c6.573 0 12.272-2.289 19.116-8.616v8.616h4.308l20.125-6.955v-4.308c-6.461-.628-7.853-2.648-7.853-14.046V35.966h-4.307l-21.27 8.1v4.061l8.615 3.029v29.37c-4.936-3.792-9.49-5.318-15.324-5.318-17.478 0-29.751 17.59-29.751 41.531.134 20.013 11.151 36.078 26.341 36.078zm-8.1-44.941c0-15.571 5.946-25.196 13.933-25.196 7.853 0 12.924 6.08 12.924 17.209v36.325c-3.792 3.545-7.337 4.936-11.151 4.936-9.895.022-15.706-10.994-15.706-33.274zm89.119 32.915c-11.892 0-19.363-12.655-19.633-33.543h38.996c-.629-20.126-10.501-32.152-25.825-32.152-17.209 0-29.504 16.715-29.504 40.633 0 22.033 12.272 36.975 30.379 36.975 13.036 0 22.28-7.471 26.341-21.516l-5.699-2.02c-3.141 7.584-8.078 11.623-15.055 11.623zm-8.212-58.874c6.462 0 10.007 5.945 10.635 18.6h-21.786c1.009-11.623 5.07-18.6 11.151-18.6zm67.849 54.835c0 5.183-4.69 9.244-10.77 9.244-7.853 0-12.273-5.699-16.715-19.116h-4.802v20.507c4.173 3.164 12.273 5.318 20.126 5.318 14.561 0 25.196-8.998 25.196-22.033 0-7.853-2.647-13.283-12.16-19.879l-11.892-8.347c-6.955-4.801-9.737-8.346-9.737-13.036 0-4.173 3.298-7.471 7.852-7.471 6.081 0 9.491 3.545 15.437 16.715h4.936V79.92c-6.462-3.299-12.407-4.802-18.6-4.802-12.789 0-22.414 8.728-22.414 20.26 0 7.966 2.535 13.283 12.16 19.88l11.892 8.346c6.843 4.779 9.491 8.459 9.491 13.148zm39.376-5.834V83.442h14.046V76.6h-14.046V56.585h-5.317c-5.453 11.398-10.501 17.21-19.363 21.517v5.318h8.346v51.919c0 11.263 5.183 17.478 14.562 17.478 5.699 0 10.006-1.257 16.715-4.308v-5.834c-2.535.629-4.173.875-5.946.875-6.843-.089-8.997-3.253-8.997-12.632z" fill="#501D0B"/><path d="M320.958 0c-14.045 0-23.671 10.77-23.671 23.29 0 31.007 56.72 39.623 56.72 84.698 0 20.126-9.378 32.421-23.042 32.421-10.501 0-16.962-7.337-16.962-18.734 0-11.892 10.006-25.331 10.006-40.768 0-13.036-8.997-23.29-21.023-23.29-15.571 0-25.69 12.655-25.69 33.297 0 4.936.516 9.244.516 12.789 0 19.879-5.833 32.286-14.696 32.286-7.606 0-11.891-6.327-11.891-17.972 0-23.424 13.551-51.155 38.613-75.97l-2.154-3.545c-19.116 5.833-24.68 0-42.674 0-15.437 0-26.207 10.634-26.207 24.68 0 9.625 6.462 17.209 15.056 17.209 6.327 0 10.881-4.308 10.881-10.5 0-5.834-4.42-10.5-10.119-10.5-3.298 0-6.08 1.525-8.099 3.79-1.01-6.326 3.679-11.262 10.635-11.262 11.891 0 16.715 3.545 28.36 4.06-24.434 28.99-32.421 48.621-32.421 67.603 0 17.209 10.253 28.876 26.34 28.876 17.726 0 28.495-16.199 28.495-44.56 0-4.689-.628-10.253-.628-16.715 0-12.16 3.545-19.116 10.254-19.116 5.317 0 8.346 4.308 8.346 10.77 0 13.417-11.151 23.177-11.151 41.53 0 19.251 14.045 32.668 34.059 32.668 22.28 0 39.376-18.6 39.376-45.076 0-50.774-56.72-64.326-56.72-86.47 0-4.937 2.154-7.607 7.337-7.607 19.879 0 28.113 53.691 58.874 53.691 10.501 0 18.6-8.48 18.6-19.363 0-8.1-5.452-14.427-12.407-14.427-6.081 0-11.151 4.937-11.151 11.264 0 6.462 5.317 11.398 12.16 11.15-1.144 2.536-3.545 3.927-6.461 3.927C356.902 64.326 356.767 0 320.958 0z" fill="#501D0B"/></svg>